<svg xmlns="http://www.w3.org/2000/svg" version="1.1" xmlns:xlink="http://www.w3.org/1999/xlink" width="512" height="512" x="0" y="0" viewBox="0 0 64 64" style="enable-background:new 0 0 512 512" xml:space="preserve" class=""><g><path d="M56.51 41.77V12c0-.55-.45-1-1-1H8.49c-.55 0-1 .45-1 1v29.58L1.6 53.43c-.15.31-.13.68.05.97.18.3.5.48.85.48h59c.01-.01.01-.01.02 0a1.002 1.002 0 0 0 .79-1.62zm-17.823 9.997H25.333a1 1 0 0 1-.932-1.362l1.333-3.434a1 1 0 0 1 .932-.638h10.646c.41 0 .779.251.931.633l1.286 3.262a.999.999 0 0 1-.842 1.539zm14.21-12.892a1 1 0 0 1-1 1H12.103a1 1 0 0 1-1-1V15.132a1 1 0 0 1 1-1h39.795a1 1 0 0 1 1 1v23.743z" fill="#000000" opacity="1" data-original="#000000" class=""></path></g></svg>