<?xml version="1.0" encoding="UTF-8"?>
<svg version="1.1" xmlns="http://www.w3.org/2000/svg" width="465" height="325">
<path d="M0 0 C153.45 0 306.9 0 465 0 C465 98.67 465 197.34 465 299 C311.55 299 158.1 299 0 299 C0 200.33 0 101.66 0 0 Z " fill="#000000" transform="translate(0,21)"/>
<path d="M0 0 C70.62 0 141.24 0 214 0 C214 66.99 214 133.98 214 203 C143.38 203 72.76 203 0 203 C-0.495 198.545 -0.495 198.545 -1 194 C-2.60081538 192.39918462 -4.47458426 192.9950174 -6.69140625 192.9921875 C-14.78142177 192.31987255 -20.53604734 187.67640755 -26.9375 183.125 C-28.15290882 182.28574667 -29.36969955 181.44849095 -30.58789062 180.61328125 C-33.74642378 178.43803568 -36.88291036 176.2344155 -40 174 C-40.76127197 173.48034668 -41.52254395 172.96069336 -42.30688477 172.42529297 C-44 171 -44 171 -45 168 C-45.08021999 166.59175107 -45.10765977 165.18002769 -45.09765625 163.76953125 C-45.09443359 162.96708984 -45.09121094 162.16464844 -45.08789062 161.33789062 C-45.07951172 160.50451172 -45.07113281 159.67113281 -45.0625 158.8125 C-45.05798828 157.96751953 -45.05347656 157.12253906 -45.04882812 156.25195312 C-45.03705403 154.16793845 -45.0191189 152.08396023 -45 150 C-44.20209329 149.99576806 -43.40418657 149.99153612 -42.58210087 149.98717594 C-23.19581331 149.88401456 -3.8095634 149.77539889 15.5766592 149.66066074 C24.95156527 149.60530747 34.32647514 149.55182207 43.70141602 149.50268555 C51.86956912 149.45986942 60.03769396 149.41359804 68.20580345 149.36312145 C72.53349396 149.33649972 76.86117878 149.31164621 81.1889019 149.29092598 C85.25752475 149.27139178 89.32609371 149.24725787 93.39466858 149.21950912 C94.89230435 149.21012158 96.38995198 149.20245247 97.88760567 149.19658089 C99.92354265 149.18834863 101.95944967 149.17348301 103.99534607 149.15821838 C105.13744758 149.15176583 106.27954908 149.14531328 107.45625973 149.1386652 C109.93512508 149.28739812 109.93512508 149.28739812 111 148 C111.10055113 145.14445419 111.13615544 142.31305977 111.12939453 139.45703125 C111.13114685 138.56116302 111.13289917 137.6652948 111.13470459 136.74227905 C111.13912447 133.76566663 111.13618464 130.78911308 111.1328125 127.8125 C111.1334855 125.75366199 111.13445549 123.69482406 111.13571167 121.63598633 C111.13718883 117.31493373 111.13503351 112.99390177 111.13037109 108.67285156 C111.1246738 103.12063454 111.12795271 97.56846586 111.13394356 92.01625061 C111.13754869 87.76305779 111.13641081 83.50987651 111.13381577 79.25668335 C111.13314636 77.20885207 111.13397538 75.16101977 111.13629532 73.1131897 C111.13882106 70.25642092 111.13498236 67.39973157 111.12939453 64.54296875 C111.13243088 63.26031631 111.13243088 63.26031631 111.13552856 61.95175171 C111.49000835 58.16936347 111.49000835 58.16936347 110 55 C108.0007223 54.89101472 105.99756013 54.85309356 103.99534607 54.84178162 C102.68977753 54.8319928 101.38420898 54.82220398 100.03907776 54.81211853 C98.5787052 54.80621355 97.11833226 54.80040316 95.65795898 54.79467773 C94.13073457 54.78510472 92.60351284 54.77509499 91.07629395 54.76467896 C86.91741199 54.7375613 82.7585186 54.71658902 78.59959674 54.69667697 C74.25803194 54.67485958 69.91650263 54.64745018 65.57496643 54.62062073 C57.34788992 54.57063623 49.12079376 54.52571884 40.89367872 54.48259836 C31.52984415 54.43327508 22.16604519 54.37833881 12.80224502 54.32291877 C-6.46513695 54.20901038 -25.7325525 54.10219073 -45 54 C-45.02700675 51.08327116 -45.04684237 48.16679323 -45.0625 45.25 C-45.07087891 44.425 -45.07925781 43.6 -45.08789062 42.75 C-45.09111328 41.95078125 -45.09433594 41.1515625 -45.09765625 40.328125 C-45.10289307 39.5949707 -45.10812988 38.86181641 -45.11352539 38.10644531 C-44.99588994 35.92373844 -44.68672909 34.07498977 -44 32 C-42.2409668 30.47949219 -42.2409668 30.47949219 -39.94921875 29.046875 C-39.11116699 28.51352539 -38.27311523 27.98017578 -37.40966797 27.43066406 C-36.51135254 26.87604492 -35.61303711 26.32142578 -34.6875 25.75 C-32.84953952 24.59489628 -31.01229697 23.4386494 -29.17578125 22.28125 C-28.2832666 21.72179687 -27.39075195 21.16234375 -26.47119141 20.5859375 C-24.3835677 19.2461624 -22.36018949 17.86549616 -20.35546875 16.40625 C-14.8109774 12.39503214 -10.80853781 10.112695 -3.86328125 10.03515625 C-1.98396857 10.21518246 -1.98396857 10.21518246 -1 9 C-0.67 6.03 -0.34 3.06 0 0 Z " fill="#FEFEFE" transform="translate(136,69)"/>
<path d="M0 0 C0 52.47 0 104.94 0 159 C-16.768125 157.040625 -33.53625 155.08125 -50.8125 153.0625 C-56.11030518 152.44511963 -61.40811035 151.82773926 -66.86645508 151.19165039 C-73.32751465 150.43444824 -73.32751465 150.43444824 -76.35063171 150.07933044 C-78.46536258 149.8315332 -80.58024199 149.58500165 -82.69523621 149.33946228 C-85.89589354 148.96763561 -89.09605887 148.5918151 -92.29614258 148.21508789 C-93.24092122 148.10626565 -94.18569986 147.99744341 -95.15910816 147.88532352 C-96.01968673 147.78318767 -96.88026529 147.68105181 -97.766922 147.57582092 C-98.89104854 147.44446542 -98.89104854 147.44446542 -100.03788471 147.31045628 C-102 147 -102 147 -105 146 C-105 102.11 -105 58.22 -105 13 C-54.6875 7.0625 -54.6875 7.0625 -38.79174805 5.19165039 C-34.09617945 4.63591321 -34.09617945 4.63591321 -29.40071106 4.07933044 C-27.30681411 3.83153983 -25.21276799 3.58500772 -23.11860657 3.33946228 C-19.94940121 2.96761899 -16.78068985 2.59180413 -13.61206055 2.21508789 C-12.67665027 2.10626565 -11.74123999 1.99744341 -10.77748394 1.88532352 C-9.9253019 1.78318767 -9.07311987 1.68105181 -8.19511414 1.57582092 C-7.45307078 1.48825059 -6.71102743 1.40068026 -5.94649792 1.31045628 C-3.9150059 0.98644388 -2.03610986 0 0 0 Z " fill="#FEFEFE" transform="translate(465,91)"/>
<path d="M0 0 C38.28 0 76.56 0 116 0 C116 25.41 116 50.82 116 77 C77.72 77 39.44 77 0 77 C0 51.59 0 26.18 0 0 Z " fill="#FEFEFE" transform="translate(122,132)"/>
<path d="M0 0 C102.3 0 204.6 0 310 0 C310 5.61 310 11.22 310 17 C307.75316123 17.00496522 307.75316123 17.00496522 305.46093178 17.01003075 C269.93628554 17.08897942 234.41167814 17.17817294 198.88709 17.28005161 C194.51847688 17.29257109 190.14986352 17.30500377 185.78125 17.31738281 C184.91150572 17.31984881 184.04176144 17.3223148 183.14566128 17.32485552 C169.04676198 17.36462307 154.94785464 17.39735269 140.84893186 17.42749982 C126.39151927 17.45856945 111.93414099 17.49715946 97.47676694 17.54279006 C88.54953346 17.57072751 79.62232519 17.59273765 70.69505964 17.60726251 C64.58054248 17.61777183 58.46607403 17.63555912 52.35159351 17.65916704 C48.81926707 17.67258732 45.28700916 17.68270544 41.75465584 17.68421364 C37.93236842 17.68592907 34.11023903 17.70292243 30.28799438 17.7215271 C29.16155411 17.71959237 28.03511384 17.71765763 26.87453902 17.71566427 C25.3480637 17.72686251 25.3480637 17.72686251 23.7907505 17.73828697 C22.90752102 17.74056529 22.02429153 17.74284362 21.11429751 17.74519098 C18.78295742 17.8054288 18.78295742 17.8054288 17 20 C16.53837573 22.43252661 16.53837573 22.43252661 16.375 25.125 C16.25125 26.73375 16.1275 28.3425 16 30 C10.72 30 5.44 30 0 30 C0 20.1 0 10.2 0 0 Z " fill="#FEFEFE" transform="translate(41,35)"/>
<path d="M0 0 C5.28 0 10.56 0 16 0 C16.22786458 2.57161458 16.45572917 5.14322917 16.68359375 7.71484375 C16.76044976 9.96159732 16.76044976 9.96159732 18 11 C19.5584595 11.10195346 21.12153626 11.13398319 22.68332005 11.1386652 C23.7024626 11.14413964 24.72160516 11.14961409 25.77163082 11.15525442 C26.90487488 11.15623253 28.03811895 11.15721064 29.20570374 11.15821838 C30.99558131 11.16562535 30.99558131 11.16562535 32.82161802 11.17318195 C36.14862739 11.18593933 39.47559447 11.19419633 42.80261862 11.20060861 C46.38478724 11.20858987 49.96693434 11.22229541 53.54908752 11.23532104 C59.7603647 11.25711619 65.97164402 11.27524952 72.18293953 11.29092598 C81.16353242 11.31359702 90.14410151 11.34174362 99.12467425 11.37124526 C113.69353862 11.41895517 128.2624127 11.46221011 142.83129883 11.50268555 C156.987231 11.5420232 171.14315453 11.58344525 185.29907227 11.62768555 C186.17101225 11.63040982 187.04295224 11.63313409 187.94131465 11.63594092 C192.31539292 11.64962011 196.68947107 11.66334044 201.06354916 11.67708123 C237.37568155 11.79109938 273.68783247 11.89782304 310 12 C310 17.61 310 23.22 310 29 C207.7 29 105.4 29 0 29 C0 19.43 0 9.86 0 0 Z " fill="#FEFEFE" transform="translate(41,277)"/>
<path d="M0 0 C1.18797432 0.01061211 1.18797432 0.01061211 2.39994812 0.0214386 C4.91735264 0.04931881 7.43249231 0.11203925 9.94921875 0.17578125 C11.66077505 0.20087264 13.3723664 0.22368434 15.08398438 0.24414062 C19.26909529 0.29912378 23.45252371 0.38534707 27.63671875 0.48828125 C24.01082382 4.80621527 20.3403063 8.83481592 16.15234375 12.6171875 C12.77683432 16.78437569 12.38638094 21.59944326 12.38275146 26.79481506 C12.37711182 28.04113205 12.37147217 29.28744904 12.36566162 30.5715332 C12.3695496 31.93969785 12.3736459 33.30786192 12.37792969 34.67602539 C12.37521758 36.12690913 12.37165541 37.5777915 12.36730957 39.02867126 C12.35821025 42.95831292 12.36171945 46.88784928 12.36806774 50.81749272 C12.37313949 54.93378684 12.36843311 59.05007209 12.36529541 63.16636658 C12.3616596 70.07715469 12.36644518 76.98790002 12.37597656 83.89868164 C12.38686468 91.88534568 12.3833314 99.87190763 12.37232375 107.8585692 C12.36324504 114.72071616 12.36196833 121.5828324 12.36720109 128.44498342 C12.37031702 132.54134796 12.3707404 136.63766451 12.36412811 140.73402596 C12.35834663 144.58442905 12.3623662 148.43470059 12.37391663 152.28508949 C12.37655873 153.69720491 12.37580578 155.10933142 12.3713913 156.52144241 C12.36591708 158.45053458 12.37400248 160.37965098 12.38275146 162.30873108 C12.38350552 163.3877321 12.38425957 164.46673311 12.38503647 165.57843113 C12.79504882 170.31883031 14.264254 173.51461821 17.67578125 176.78515625 C18.25585938 177.35105469 18.8359375 177.91695312 19.43359375 178.5 C20.036875 179.07363281 20.64015625 179.64726562 21.26171875 180.23828125 C23.40525967 182.30494412 25.5280666 184.38556896 27.63671875 186.48828125 C27.63671875 186.81828125 27.63671875 187.14828125 27.63671875 187.48828125 C22.42229599 187.53769985 17.20800941 187.57400956 11.9934082 187.59814453 C10.21929551 187.60820536 8.4451994 187.62185547 6.67114258 187.63916016 C4.12186591 187.66340503 1.57280838 187.67476343 -0.9765625 187.68359375 C-2.16733147 187.69907761 -2.16733147 187.69907761 -3.38215637 187.71487427 C-7.24551168 187.71566235 -9.07167571 187.68268494 -12.36328125 185.48828125 C-13.53878462 181.96177113 -13.50117079 179.1652875 -13.5171814 175.44155884 C-13.52156365 174.71973462 -13.5259459 173.99791041 -13.53046095 173.25421274 C-13.54384366 170.82914049 -13.55002655 168.40410458 -13.55615234 165.97900391 C-13.56405356 164.24285213 -13.57232252 162.50670199 -13.58093262 160.77055359 C-13.6071446 155.06449958 -13.62245676 149.35843826 -13.63671875 143.65234375 C-13.64207826 141.68893809 -13.64745577 139.72553248 -13.6528511 137.76212692 C-13.67447622 129.59713947 -13.69321444 121.432154 -13.7044735 113.26714516 C-13.72072386 101.55916319 -13.7539322 89.85151249 -13.81087434 78.14365542 C-13.8495372 69.91428544 -13.86910169 61.68500422 -13.87439406 53.45554578 C-13.87805177 48.53851804 -13.89011791 43.62184368 -13.9224968 38.70491409 C-13.95251415 34.08044378 -13.95891203 29.45654189 -13.94711304 24.83199501 C-13.94689179 23.13443575 -13.95523926 21.43685058 -13.97276688 19.73938179 C-13.99539511 17.42189057 -13.98719563 15.1064718 -13.97128296 12.78897095 C-13.97459311 11.4922175 -13.97790325 10.19546406 -13.98131371 8.85941505 C-12.53134748 0.95039649 -7.13071836 -0.24160501 0 0 Z " fill="#FEFEFE" transform="translate(25.36328125,76.51171875)"/>
<path d="M0 0 C153.45 0 306.9 0 465 0 C465 15.18 465 30.36 465 46 C462.03 44.741875 459.06 43.48375 456 42.1875 C441.39895029 36.06558067 426.66090647 30.28582634 411.93164062 24.48120117 C411.03091041 24.12395714 410.13018019 23.7667131 409.20215511 23.39864349 C407.18216175 22.60640736 405.15646369 21.82849764 403.12425327 21.06814766 C397.38471085 18.88725557 392.00865275 16.51832981 386.65782166 13.50151062 C357.51682069 -1.8193084 324.20899708 0.88352135 292.20807038 1.01051771 C286.01663184 1.03443893 279.82572433 1.03105002 273.63428116 1.00976372 C272.74471455 1.00675229 271.85514795 1.00374086 270.93862478 1.00063817 C269.13030776 0.99444381 267.32199089 0.98820769 265.51367415 0.98193031 C248.67639974 0.92688132 231.84016763 0.95886159 215.00297309 1.02048778 C200.59709534 1.07091675 186.19325467 1.03856186 171.78759766 0.94848633 C154.97232438 0.84334473 138.15832419 0.79464446 121.34272015 0.83111089 C119.54749198 0.834815 117.75226361 0.8384276 115.95703506 0.84194756 C114.63275249 0.84455414 114.63275249 0.84455414 113.28171673 0.84721338 C107.09778183 0.85539185 100.9148301 0.82330609 94.7311058 0.77467537 C87.19557556 0.71627116 79.66294259 0.71869371 72.12754916 0.79729182 C68.29164015 0.83574972 64.46078757 0.84807505 60.62508774 0.7850914 C42.01720279 0.22231531 42.01720279 0.22231531 26.16188538 8.84101623 C23.46270211 11.69488379 21.00324117 14.6421825 18.65827584 17.79248989 C15.52570032 21.96259957 12.09112626 25.9992449 8.31990254 29.60748953 C6.56740937 31.45638747 6.63148701 32.53987961 6.62890625 35.0546875 C6.61150391 35.83457031 6.59410156 36.61445312 6.57617188 37.41796875 C6.56710086 39.04816017 6.56185523 40.67837762 6.56054688 42.30859375 C6.43572055 47.53408178 5.82002976 50.12998854 2 54 C1.34 54.99 0.68 55.98 0 57 C0 38.19 0 19.38 0 0 Z " fill="#FEFEFE" transform="translate(0,21)"/>
<path d="M0 0 C1.32 1.65 2.64 3.3 4 5 C4.66 5.66 5.32 6.32 6 7 C6.0522319 9.02241923 6.09474734 11.04587627 6.07250977 13.06884766 C6.04374978 20.05401651 6.13297876 25.23966687 11.0625 30.625 C12.67635397 32.11864615 14.32183339 33.5789932 16 35 C17.38639968 36.36350501 18.76205484 37.73804993 20.125 39.125 C20.76953125 39.75921875 21.4140625 40.3934375 22.078125 41.046875 C24.69442885 43.70572038 27.12874981 46.50379629 29.5546875 49.3359375 C31.87426699 52.22418628 31.87426699 52.22418628 35.26622647 53.27716368 C36.22162707 53.28995606 37.17702768 53.30274844 38.16137981 53.31592846 C39.26209684 53.33532803 40.36281387 53.3547276 41.49688596 53.37471503 C42.71653587 53.38594234 43.93618579 53.39716965 45.1927948 53.40873718 C46.48129107 53.42808518 47.76978735 53.44743317 49.09732896 53.46736747 C52.68801541 53.52057477 56.27874846 53.56079839 59.86962593 53.59860742 C62.94859089 53.63254874 66.02744244 53.67377235 69.10631939 53.71483269 C98.54107384 54.10526523 127.97866115 54.30080386 157.41546154 54.45956707 C161.26778062 54.48071811 165.12009726 54.50226155 168.97241211 54.52416992 C169.92969596 54.52959668 170.88697982 54.53502344 171.87327228 54.54061464 C187.22226991 54.63032866 202.568627 54.81431825 217.91620787 55.03709092 C233.76039336 55.2651036 249.60323907 55.39315339 265.44902211 55.43355304 C274.31028468 55.45871339 283.16667777 55.52447914 292.0262661 55.70438194 C338.00099839 56.60822975 373.72022536 50.9662142 415.41779518 31.07244301 C424.50266345 26.76444405 433.8442658 23.12146142 443.21439683 19.48820913 C447.21288187 17.92986614 451.19217686 16.3243256 455.171875 14.71875 C458.42810283 13.40714542 461.66794574 12.11068475 465 11 C465 25.85 465 40.7 465 56 C311.55 56 158.1 56 0 56 C0 37.52 0 19.04 0 0 Z " fill="#FEFEFE" transform="translate(0,264)"/>
<path d="M0 0 C23.1208372 2.44924123 46.22032328 5.04672036 69.3125 7.75 C69.99829636 7.83028065 70.68409271 7.91056129 71.39067078 7.99327469 C79.92742695 8.99285307 88.4638625 9.99515185 97 11 C96.64350891 13.39808655 96.64350891 13.39808655 96 16 C93.70385742 17.63061523 93.70385742 17.63061523 90.60546875 19.05859375 C89.44063965 19.60209473 88.27581055 20.1455957 87.07568359 20.70556641 C85.78011745 21.28398771 84.48403983 21.86126453 83.1875 22.4375 C81.84177913 23.05087367 80.49624243 23.66465153 79.15087891 24.27880859 C67.38849266 29.59188506 55.38505869 34.26936421 43.32543945 38.85766602 C32.18498105 43.10098126 21.21387124 47.65014701 10.30029297 52.44580078 C9.22924316 52.9148584 8.15819336 53.38391602 7.0546875 53.8671875 C5.65452393 54.48762939 5.65452393 54.48762939 4.22607422 55.12060547 C2 56 2 56 0 56 C0 37.52 0 19.04 0 0 Z " fill="#FEFEFE" transform="translate(360,247)"/>
<path d="M0 0 C4.01357823 0.80271565 6.96816785 1.69609221 10.671875 3.265625 C11.79392334 3.73661621 12.91597168 4.20760742 14.07202148 4.69287109 C15.28575439 5.20672363 16.4994873 5.72057617 17.75 6.25 C25.86304825 9.66180816 33.98645204 13.02978336 42.19921875 16.1953125 C42.87782455 16.45713821 43.55643036 16.71896393 44.25559998 16.98872375 C44.93542435 17.25098251 45.61524872 17.51324127 46.31567383 17.78344727 C63.58602604 24.44705717 80.33655862 31.93916284 97 40 C97 41.32 97 42.64 97 44 C78.0809414 46.66569409 59.12090925 48.99619153 40.15103149 51.26730347 C37.47155961 51.588104 34.79236067 51.91105309 32.1133728 52.23587036 C28.28708477 52.69858247 24.46008172 53.15485862 20.6328125 53.609375 C19.47857285 53.74981735 18.32433319 53.8902597 17.13511658 54.03495789 C16.0504158 54.16231827 14.96571503 54.28967865 13.84814453 54.42089844 C12.43832809 54.58933258 12.43832809 54.58933258 11.00003052 54.76116943 C7.34405639 55.05221926 3.66754098 55 0 55 C0 36.85 0 18.7 0 0 Z " fill="#FEFEFE" transform="translate(360,39)"/>
<path d="M0 0 C9.9 0 19.8 0 30 0 C30 23.43 30 46.86 30 71 C20.1 71 10.2 71 0 71 C0 47.57 0 24.14 0 0 Z " fill="#FEFEFE" transform="translate(49,136)"/>
<path d="M0 0 C6.93 0 13.86 0 21 0 C21 25.74 21 51.48 21 78 C14.07 78 7.14 78 0 78 C0 52.26 0 26.52 0 0 Z " fill="#FEFEFE" transform="translate(91,132)"/>
<path d="M0 0 C3.57866231 2.99199635 6.70551901 5.83171545 7.58203125 10.54296875 C8.11800062 16.54987072 8.16915219 21.45157129 4.58203125 26.54296875 C-0.16334507 31.41442995 -3.39970776 33.34505 -10.23046875 33.79296875 C-16.12357042 33.67270137 -20.61194732 31.69412574 -24.79296875 27.54296875 C-28.37901042 22.99552181 -28.75947941 18.19415704 -28.41796875 12.54296875 C-27.6069472 8.02114106 -26.02481053 4.76337289 -22.60546875 1.66796875 C-15.73414221 -2.91291561 -7.43198169 -4.4783993 0 0 Z " fill="#000000" transform="translate(331.41796875,223.45703125)"/>
<path d="M0 0 C5.19764827 2.72311573 7.98011524 6.86612696 9.796875 12.31640625 C10.36358335 18.03798092 10.06329697 22.4167733 6.796875 27.31640625 C4.02336407 30.5445911 1.88804748 32.95268209 -2.203125 34.31640625 C-4.15787509 34.46120255 -6.1182388 34.53708127 -8.078125 34.56640625 C-9.62113281 34.60507813 -9.62113281 34.60507813 -11.1953125 34.64453125 C-16.19245297 34.09938865 -19.27443602 31.63477823 -22.453125 27.87890625 C-23.20335937 27.01458984 -23.20335937 27.01458984 -23.96875 26.1328125 C-26.64387349 22.19631749 -26.51768224 17.95612559 -26.203125 13.31640625 C-24.35823377 7.47425067 -21.71647237 4.2655852 -17.203125 0.31640625 C-11.83296866 -1.47364586 -5.44077734 -1.68818446 0 0 Z " fill="#000000" transform="translate(329.203125,85.68359375)"/>
<path d="M0 0 C2.31 0 4.62 0 7 0 C7.33 8.91 7.66 17.82 8 27 C5.36 27 2.72 27 0 27 C0 18.09 0 9.18 0 0 Z " fill="#FEFEFE" transform="translate(69,219)"/>
<path d="M0 0 C2.64 0 5.28 0 8 0 C7.67 8.91 7.34 17.82 7 27 C4.69 27 2.38 27 0 27 C0 18.09 0 9.18 0 0 Z " fill="#FEFEFE" transform="translate(69,96)"/>
<path d="M0 0 C0 6.6 0 13.2 0 20 C-5.28 20 -10.56 20 -16 20 C-14.20644075 15.51610187 -6.00883404 0 0 0 Z " fill="#FEFEFE" transform="translate(31,45)"/>
<path d="M0 0 C5.28 0.33 10.56 0.66 16 1 C16 7.27 16 13.54 16 20 C11.59634161 17.35780497 9.85180132 15.94401545 6.875 12.0625 C5.88113281 10.78052734 5.88113281 10.78052734 4.8671875 9.47265625 C4.25101563 8.65667969 3.63484375 7.84070313 3 7 C2.42507812 6.29746094 1.85015625 5.59492188 1.2578125 4.87109375 C0 3 0 3 0 0 Z " fill="#FEFEFE" transform="translate(15,276)"/>
<path d="M0 0 C9.57 0 19.14 0 29 0 C27.35 1.32 25.7 2.64 24 4 C23.67 4.33 23.34 4.66 23 5 C21.29227642 5.08713831 19.58101351 5.10700007 17.87109375 5.09765625 C16.31938477 5.09282227 16.31938477 5.09282227 14.73632812 5.08789062 C13.64771484 5.07951172 12.55910156 5.07113281 11.4375 5.0625 C9.7987793 5.05573242 9.7987793 5.05573242 8.12695312 5.04882812 C5.41791505 5.03699826 2.70898401 5.02051543 0 5 C0 3.35 0 1.7 0 0 Z " fill="#FEFEFE" transform="translate(83,69)"/>
<path d="M0 0 C3.72890255 -0.1164862 7.45733514 -0.18734576 11.1875 -0.25 C12.77014648 -0.30027344 12.77014648 -0.30027344 14.38476562 -0.3515625 C15.40634766 -0.36445313 16.42792969 -0.37734375 17.48046875 -0.390625 C18.41785889 -0.41157227 19.35524902 -0.43251953 20.32104492 -0.45410156 C23 0 23 0 28 4 C18.76 4 9.52 4 0 4 C0 2.68 0 1.36 0 0 Z " fill="#FEFEFE" transform="translate(83,268)"/>
</svg>
